<svg width="100" height="100" viewBox="0 0 100 100" fill="none" xmlns="http://www.w3.org/2000/svg">
<g clip-path="url(#clip0_37_132)">
<rect width="100" height="100" rx="50" fill="#F3F5F4"/>
<path d="M-16.9895 -0.0472717V100.047H117.646V-0.0472717H-16.9895Z" fill="#3757A6"/>
<path d="M-16.9895 -0.0472717L117.646 100.047ZM117.646 -0.0472717L-16.9895 100.047Z" fill="black"/>
<path fill-rule="evenodd" clip-rule="evenodd" d="M35.2757 50L-20 8.90546L-13.9789 -9L50.3284 38.8091L114.636 -9L120.657 8.90546L65.3811 50L120.657 91.0946L114.636 109L50.3284 61.1909L-13.9789 109L-20 91.0946L35.2757 50Z" fill="#EFEFEF"/>
<path d="M-16.9895 -0.0472717L117.646 100.047ZM117.646 -0.0472717L-16.9895 100.047Z" fill="black"/>
<path fill-rule="evenodd" clip-rule="evenodd" d="M40.2931 50L-18.9966 5.92121L-14.9825 -6.01576L50.3283 42.5394L115.639 -6.01576L119.653 5.92121L60.3635 50L119.653 94.0788L115.639 106.016L50.3283 57.4606L-14.9825 106.016L-18.9966 94.0788L40.2931 50Z" fill="#E73B36"/>
<path d="M50.3284 -0.0472717V100.047ZM-16.9895 50H117.646Z" fill="black"/>
<path fill-rule="evenodd" clip-rule="evenodd" d="M39.1087 33.3176V-0.0472717H61.548V33.3176H117.646V66.6824H61.548V100.047H39.1087V66.6824H-16.9895V33.3176H39.1087Z" fill="#EFEFEF"/>
<path d="M50.3284 -0.0472717V100.047ZM-16.9895 50H117.646Z" fill="black"/>
<path fill-rule="evenodd" clip-rule="evenodd" d="M43.5966 39.9906V-0.0472717H57.0601V39.9906H117.646V60.0095H57.0601V100.047H43.5966V60.0095H-16.9895V39.9906H43.5966Z" fill="#E73B36"/>
<path fill-rule="evenodd" clip-rule="evenodd" d="M56 99.3734C65.102 84.9997 70.3714 67.9586 70.3714 49.6867C70.3714 31.4148 65.102 14.3737 56 0C80.9645 2.79675 100.371 23.9754 100.371 49.6867C100.371 75.398 80.9645 96.5767 56 99.3734Z" fill="#0D0D0D" fill-opacity="0.1"/>
</g>
<defs>
<clipPath id="clip0_37_132">
<rect width="100" height="100" rx="50" fill="white"/>
</clipPath>
</defs>
</svg>
